<?xml version="1.0" encoding="UTF-8"?>
<!DOCTYPE svg PUBLIC "-//W3C//DTD SVG 1.1//EN" "http://www.w3.org/Graphics/SVG/1.1/DTD/svg11.dtd">
<svg xmlns="http://www.w3.org/2000/svg" version="1.1" width="512px" height="512px" style="shape-rendering:geometricPrecision; text-rendering:geometricPrecision; image-rendering:optimizeQuality; fill-rule:evenodd; clip-rule:evenodd" xmlns:xlink="http://www.w3.org/1999/xlink">
<g><path style="opacity:0.983" fill="#3585e6" d="M 262.5,15.5 C 273.965,27.4651 285.631,39.2985 297.5,51C 296.906,51.4643 296.239,51.631 295.5,51.5C 272.475,47.2863 249.475,46.953 226.5,50.5C 217.833,40.8333 209.167,31.1667 200.5,21.5C 220.829,16.5012 241.495,14.5012 262.5,15.5 Z"/></g>
<g><path style="opacity:0.982" fill="#3491f4" d="M 262.5,15.5 C 289.696,16.006 316.03,21.006 341.5,30.5C 386.249,76.7498 431.582,122.583 477.5,168C 478.094,168.464 478.761,168.631 479.5,168.5C 489.812,194.058 495.145,220.725 495.5,248.5C 483.535,237.035 471.702,225.369 460,213.5C 459.536,214.094 459.369,214.761 459.5,215.5C 437.833,127.833 383.167,73.1667 295.5,51.5C 296.239,51.631 296.906,51.4643 297.5,51C 285.631,39.2985 273.965,27.4651 262.5,15.5 Z"/></g>
<g><path style="opacity:0.98" fill="#367bd8" d="M 200.5,21.5 C 209.167,31.1667 217.833,40.8333 226.5,50.5C 207.435,52.8555 189.102,57.8555 171.5,65.5C 163.167,57.5 154.833,49.5 146.5,41.5C 163.456,32.2892 181.456,25.6225 200.5,21.5 Z"/></g>
<g><path style="opacity:0.965" fill="#3496fb" d="M 341.5,30.5 C 407.189,56.8552 453.189,102.855 479.5,168.5C 478.761,168.631 478.094,168.464 477.5,168C 431.582,122.583 386.249,76.7498 341.5,30.5 Z"/></g>
<g><path style="opacity:0.984" fill="#3672ce" d="M 146.5,41.5 C 154.833,49.5 163.167,57.5 171.5,65.5C 162.623,69.6944 153.957,74.361 145.5,79.5C 136.887,72.2235 128.553,64.5568 120.5,56.5C 128.505,50.4929 137.172,45.4929 146.5,41.5 Z"/></g>
<g><path style="opacity:0.987" fill="#376cc6" d="M 120.5,56.5 C 128.553,64.5568 136.887,72.2235 145.5,79.5C 134.954,86.3693 124.954,94.036 115.5,102.5C 107.5,94.8333 99.5,87.1667 91.5,79.5C 100.279,70.722 109.945,63.0553 120.5,56.5 Z"/></g>
<g><path style="opacity:1" fill="#367bd9" d="M 271.5,157.5 C 260.833,147.167 250.167,136.833 239.5,126.5C 239.333,114.162 239.5,101.829 240,89.5C 244.473,80.5178 251.64,77.3511 261.5,80C 266,81.8333 269.167,85 271,89.5C 271.5,112.164 271.667,134.831 271.5,157.5 Z"/></g>
<g><path style="opacity:0.986" fill="#3763ba" d="M 91.5,79.5 C 99.5,87.1667 107.5,94.8333 115.5,102.5C 104.081,113.25 93.7474,124.916 84.5,137.5C 78.0939,129.589 71.0939,122.089 63.5,115C 62.552,114.517 61.552,114.351 60.5,114.5C 69.7474,101.916 80.0807,90.2498 91.5,79.5 Z"/></g>
<g><path style="opacity:0.987" fill="#3858ad" d="M 60.5,114.5 C 61.552,114.351 62.552,114.517 63.5,115C 71.0939,122.089 78.0939,129.589 84.5,137.5C 74.3003,152.9 65.967,169.233 59.5,186.5C 50.8333,178.833 42.1667,171.167 33.5,163.5C 40.4322,145.933 49.4322,129.6 60.5,114.5 Z"/></g>
<g><path style="opacity:1" fill="#3671cc" d="M 239.5,126.5 C 250.167,136.833 260.833,147.167 271.5,157.5C 271.5,180.5 271.5,203.5 271.5,226.5C 260.833,216.167 250.167,205.833 239.5,195.5C 239.5,172.5 239.5,149.5 239.5,126.5 Z"/></g>
<g><path style="opacity:0.985" fill="#394fa1" d="M 33.5,163.5 C 42.1667,171.167 50.8333,178.833 59.5,186.5C 53.0057,205.972 49.339,225.972 48.5,246.5C 38.1667,237.167 27.8333,227.833 17.5,218.5C 20.8288,199.507 26.1621,181.173 33.5,163.5 Z"/></g>
<g><path style="opacity:1" fill="#376cc6" d="M 239.5,195.5 C 250.167,205.833 260.833,216.167 271.5,226.5C 271.5,230.833 271.5,235.167 271.5,239.5C 288.167,239.5 304.833,239.5 321.5,239.5C 331.833,250.167 342.167,260.833 352.5,271.5C 329.5,271.5 306.5,271.5 283.5,271.5C 269.167,256.5 254.5,241.833 239.5,227.5C 239.5,216.833 239.5,206.167 239.5,195.5 Z"/></g>
<g><path style="opacity:0.988" fill="#394898" d="M 17.5,218.5 C 27.8333,227.833 38.1667,237.167 48.5,246.5C 47.8717,261.668 48.8717,276.668 51.5,291.5C 50.7611,291.631 50.0944,291.464 49.5,291C 38.2984,279.631 26.9651,268.465 15.5,257.5C 15.2522,244.445 15.9189,231.445 17.5,218.5 Z"/></g>
<g><path style="opacity:1" fill="#3766be" d="M 239.5,227.5 C 254.5,241.833 269.167,256.5 283.5,271.5C 279.5,271.5 275.5,271.5 271.5,271.5C 271.5,277.833 271.5,284.167 271.5,290.5C 254.167,273.833 237.167,256.833 220.5,239.5C 226.833,239.5 233.167,239.5 239.5,239.5C 239.5,235.5 239.5,231.5 239.5,227.5 Z"/></g>
<g><path style="opacity:0.998" fill="#3952a4" d="M 111.5,239.5 C 121.833,250.167 132.167,260.833 142.5,271.5C 124.83,271.667 107.164,271.5 89.5,271C 80.5178,266.527 77.3511,259.36 80,249.5C 81.8333,245 85,241.833 89.5,240C 96.8258,239.5 104.159,239.334 111.5,239.5 Z"/></g>
<g><path style="opacity:1" fill="#385aaf" d="M 111.5,239.5 C 137.167,239.5 162.833,239.5 188.5,239.5C 198.833,250.167 209.167,260.833 219.5,271.5C 193.833,271.5 168.167,271.5 142.5,271.5C 132.167,260.833 121.833,250.167 111.5,239.5 Z"/></g>
<g><path style="opacity:1" fill="#3861b8" d="M 188.5,239.5 C 199.167,239.5 209.833,239.5 220.5,239.5C 237.167,256.833 254.167,273.833 271.5,290.5C 271.5,301.167 271.5,311.833 271.5,322.5C 260.833,312.167 250.167,301.833 239.5,291.5C 239.5,284.833 239.5,278.167 239.5,271.5C 232.833,271.5 226.167,271.5 219.5,271.5C 209.167,260.833 198.833,250.167 188.5,239.5 Z"/></g>
<g><path style="opacity:1" fill="#3678d5" d="M 321.5,239.5 C 342.833,239.5 364.167,239.5 385.5,239.5C 395.833,250.167 406.167,260.833 416.5,271.5C 395.167,271.5 373.833,271.5 352.5,271.5C 342.167,260.833 331.833,250.167 321.5,239.5 Z"/></g>
<g><path style="opacity:0.992" fill="#367edd" d="M 385.5,239.5 C 397.505,239.333 409.505,239.5 421.5,240C 430.482,244.473 433.649,251.64 431,261.5C 428.454,268.187 423.621,271.52 416.5,271.5C 406.167,260.833 395.833,250.167 385.5,239.5 Z"/></g>
<g><path style="opacity:0.982" fill="#3585e6" d="M 495.5,248.5 C 496.429,269.801 494.429,290.801 489.5,311.5C 480.114,302.111 470.447,293.111 460.5,284.5C 463.317,261.507 462.984,238.507 459.5,215.5C 459.369,214.761 459.536,214.094 460,213.5C 471.702,225.369 483.535,237.035 495.5,248.5 Z"/></g>
<g><path style="opacity:0.978" fill="#39408e" d="M 15.5,257.5 C 26.9651,268.465 38.2984,279.631 49.5,291C 50.0944,291.464 50.7611,291.631 51.5,291.5C 63.4208,351.886 95.0874,398.72 146.5,432C 154.099,436.466 161.766,440.633 169.5,444.5C 183.455,459.967 198.288,475.301 214,490.5C 214.464,491.094 214.631,491.761 214.5,492.5C 205.438,490.754 196.438,488.754 187.5,486.5C 134.251,431.75 80.4174,377.417 26,323.5C 25.6012,323.728 25.4346,324.062 25.5,324.5C 18.4539,302.85 15.1206,280.517 15.5,257.5 Z"/></g>
<g><path style="opacity:1" fill="#385cb1" d="M 239.5,291.5 C 250.167,301.833 260.833,312.167 271.5,322.5C 271.5,336.167 271.5,349.833 271.5,363.5C 260.833,353.167 250.167,342.833 239.5,332.5C 239.5,318.833 239.5,305.167 239.5,291.5 Z"/></g>
<g><path style="opacity:0.982" fill="#367bd9" d="M 460.5,284.5 C 470.447,293.111 480.114,302.111 489.5,311.5C 485.589,327.907 479.923,343.573 472.5,358.5C 464.167,350.5 455.833,342.5 447.5,334.5C 454.022,318.41 458.356,301.744 460.5,284.5 Z"/></g>
<g><path style="opacity:0.973" fill="#3a3b88" d="M 187.5,486.5 C 105.802,460.135 51.8018,406.135 25.5,324.5C 25.4346,324.062 25.6012,323.728 26,323.5C 80.4174,377.417 134.251,431.75 187.5,486.5 Z"/></g>
<g><path style="opacity:0.981" fill="#3671cc" d="M 447.5,334.5 C 455.833,342.5 464.167,350.5 472.5,358.5C 465.589,374.005 456.923,388.338 446.5,401.5C 438.806,393.804 430.806,386.471 422.5,379.5C 432.103,365.301 440.437,350.301 447.5,334.5 Z"/></g>
<g><path style="opacity:0.998" fill="#3853a6" d="M 239.5,332.5 C 250.167,342.833 260.833,353.167 271.5,363.5C 271.667,382.836 271.5,402.17 271,421.5C 266.527,430.482 259.36,433.649 249.5,431C 245,429.167 241.833,426 240,421.5C 239.5,391.835 239.333,362.169 239.5,332.5 Z"/></g>
<g><path style="opacity:0.984" fill="#3768c0" d="M 422.5,379.5 C 430.806,386.471 438.806,393.804 446.5,401.5C 437.58,414.421 426.914,425.755 414.5,435.5C 407.557,427.22 400.224,419.22 392.5,411.5C 402.839,401.161 412.839,390.494 422.5,379.5 Z"/></g>
<g><path style="opacity:0.983" fill="#385db3" d="M 392.5,411.5 C 400.224,419.22 407.557,427.22 414.5,435.5C 401.916,447.408 387.916,457.408 372.5,465.5C 364.471,457.473 356.805,449.139 349.5,440.5C 365.042,432.567 379.376,422.9 392.5,411.5 Z"/></g>
<g><path style="opacity:0.988" fill="#394494" d="M 169.5,444.5 C 197.233,456.58 226.233,462.913 256.5,463.5C 265.964,473.465 275.631,483.298 285.5,493C 284.944,493.383 284.611,493.883 284.5,494.5C 261.075,496.316 237.741,495.65 214.5,492.5C 214.631,491.761 214.464,491.094 214,490.5C 198.288,475.301 183.455,459.967 169.5,444.5 Z"/></g>
<g><path style="opacity:0.985" fill="#3854a7" d="M 349.5,440.5 C 356.805,449.139 364.471,457.473 372.5,465.5C 356.584,474.952 339.584,481.952 321.5,486.5C 313.369,477.868 305.036,469.368 296.5,461C 294.618,460.802 292.952,460.302 291.5,459.5C 311.776,455.964 331.109,449.63 349.5,440.5 Z"/></g>
<g><path style="opacity:0.989" fill="#394d9e" d="M 291.5,459.5 C 292.952,460.302 294.618,460.802 296.5,461C 305.036,469.368 313.369,477.868 321.5,486.5C 309.409,490.185 297.076,492.852 284.5,494.5C 284.611,493.883 284.944,493.383 285.5,493C 275.631,483.298 265.964,473.465 256.5,463.5C 268.149,462.933 279.816,461.6 291.5,459.5 Z"/></g>
</svg>
